# File created by Blade
# Date/Time:  Tue Jan 27 17:21:37 2015
# Frame Rate: 120.000 fps
#------------------------------------------------------
:FULLY-SPECIFIED
:DEGREES
3741
root -1.990299 37.468631 1.031367 34.355428 16.109884 10.980370
Spine -5.633966 8.680642 -5.337981
Head -3.202473 15.494496 -18.853686
LeftShoulder -2.492361 -12.979016 6.842407
LeftArm -0.466638 -27.406158 -43.068708
LeftForeArm -2.412360 -0.000000 80.852800
LeftHand -19.937480 -0.000000 53.728853
LeftHandThumb1 -26.253704 0.000000 33.147579
RightShoulder -1.689169 -19.717638 -6.432645
RightArm 13.914596 -16.304986 54.351909
RightForeArm 191.169100 -0.000000 40.550630
RightHand -2.255957 -0.000000 7.469634
RightHandThumb1 -24.326973 -0.000000 -32.862282
LeftUpLeg -9.147747 4.195425 8.988205
LeftLeg 75.845837 -0.000000 -0.000000
LeftFoot -3.596610 3.412935 -29.097818
LeftToeBase 12.012900 -0.000000 -0.000000
RightUpLeg -31.374548 -14.784499 5.346255
RightLeg 5.248300 -0.000000 -0.000000
RightFoot -11.252717 -1.827415 -3.919489
RightToeBase -1.084017 -0.000000 0.000000
3742
root -1.987099 37.469999 1.017309 34.461522 16.152105 10.981258
Spine -5.805626 8.548769 -5.216541
Head -3.231570 14.516408 -18.782973
LeftShoulder -2.498655 -12.879970 6.854725
LeftArm -0.487744 -27.406990 -43.102792
LeftForeArm -2.485429 0.000000 80.742647
LeftHand -19.788954 0.000000 53.565894
LeftHandThumb1 -26.253704 0.000000 33.147579
RightShoulder -1.735815 -19.738976 -6.395051
RightArm 13.923666 -16.288300 54.308942
RightForeArm 191.181208 -0.000000 40.619120
RightHand -2.256959 -0.000000 7.566049
RightHandThumb1 -24.326973 -0.000000 -32.862282
LeftUpLeg -9.227131 4.259042 8.966782
LeftLeg 75.801773 -0.000000 -0.000000
LeftFoot -3.598235 3.435902 -29.151009
LeftToeBase 12.022445 -0.000000 -0.000000
RightUpLeg -31.489487 -14.773833 5.374402
RightLeg 5.228362 -0.000000 -0.000000
RightFoot -11.224322 -1.902326 -3.935471
RightToeBase -1.072874 -0.000000 0.000000
3743
root -1.981596 37.470739 1.004214 34.545756 16.163993 10.986732
Spine -5.950181 8.432093 -5.107093
Head -3.264163 13.631349 -18.702801
LeftShoulder -2.526054 -12.777358 6.871544
LeftArm -0.459341 -27.392085 -43.146969
LeftForeArm -2.501871 0.000000 80.651833
LeftHand -19.975220 0.000000 53.750826
LeftHandThumb1 -26.253704 0.000000 33.147579
RightShoulder -1.756014 -19.739422 -6.356070
RightArm 13.898594 -16.253637 54.266396
RightForeArm 191.197490 -0.000000 40.687491
RightHand -2.299240 -0.000000 7.562829
RightHandThumb1 -24.326973 -0.000000 -32.862282
LeftUpLeg -9.269020 4.320627 8.916053
LeftLeg 75.735865 -0.000000 -0.000000
LeftFoot -3.618548 3.441811 -29.336910
LeftToeBase 12.103249 -0.000000 -0.000000
RightUpLeg -31.575857 -14.745683 5.370438
RightLeg 5.202228 -0.000000 -0.000000
RightFoot -11.201496 -1.952727 -3.937839
RightToeBase -1.056345 -0.000000 0.000000
3744
root -1.975928 37.470631 0.993004 34.576119 16.159605 10.981839
Spine -6.021506 8.360182 -4.993884
Head -3.308731 12.744751 -18.621853
LeftShoulder -2.497407 -12.754437 6.856714
LeftArm -0.503923 -27.379260 -43.140999
LeftForeArm -2.387968 -0.000000 80.524538
LeftHand -20.026718 0.000000 53.834230
LeftHandThumb1 -26.253704 0.000000 33.147579
RightShoulder -1.814386 -19.736003 -6.311283
RightArm 13.906983 -16.232175 54.224359
RightForeArm 191.266960 -0.000000 40.739425
RightHand -2.272960 -0.000000 7.570545
RightHandThumb1 -24.326973 -0.000000 -32.862282
LeftUpLeg -9.244827 4.400396 8.869975
LeftLeg 75.651240 -0.000000 -0.000000
LeftFoot -3.603504 3.470644 -29.325014
LeftToeBase 12.136611 -0.000000 -0.000000
RightUpLeg -31.615755 -14.733063 5.371331
RightLeg 5.187281 -0.000000 -0.000000
RightFoot -11.183262 -1.975805 -3.954650
RightToeBase -1.077720 -0.000000 0.000000
3745
root -1.969517 37.470039 0.982479 34.588711 16.148999 10.981068
Spine -6.073611 8.307280 -4.895031
Head -3.344079 11.992110 -18.500103
LeftShoulder -2.457533 -12.729555 6.846784
LeftArm -0.547671 -27.387779 -43.141002
LeftForeArm -2.437188 -0.000000 80.401288
LeftHand -19.957383 -0.000000 53.681251
LeftHandThumb1 -26.253704 0.000000 33.147579
RightShoulder -1.849534 -19.729229 -6.260233
RightArm 13.871378 -16.142051 54.233468
RightForeArm 191.248164 -0.000000 40.793759
RightHand -2.279344 0.000000 7.639300
RightHandThumb1 -24.326973 -0.000000 -32.862282
LeftUpLeg -9.206333 4.499577 8.823057
LeftLeg 75.565399 -0.000000 -0.000000
LeftFoot -3.547729 3.521649 -29.280651
LeftToeBase 11.883883 -0.000000 -0.000000
RightUpLeg -31.622487 -14.674852 5.328797
RightLeg 5.162769 -0.000000 -0.000000
RightFoot -11.186461 -2.032678 -3.948886
RightToeBase -1.028889 -0.000000 0.000000
3746
root -1.965686 37.469112 0.971167 34.620410 16.149363 10.963142
Spine -6.151896 8.230252 -4.769602
Head -3.387887 11.322589 -18.404927
LeftShoulder -2.438121 -12.715871 6.845598
LeftArm -0.611468 -27.397210 -43.155519
LeftForeArm -2.366500 -0.000000 80.246659
LeftHand -19.911673 0.000000 53.491958
LeftHandThumb1 -26.253704 0.000000 33.147579
RightShoulder -1.874531 -19.701291 -6.228338
RightArm 13.852056 -16.116017 54.225907
RightForeArm 191.313990 -0.000000 40.802204
RightHand -2.353706 -0.000000 7.547442
RightHandThumb1 -24.326973 -0.000000 -32.862282
LeftUpLeg -9.196839 4.615564 8.806190
LeftLeg 75.483367 -0.000000 -0.000000
LeftFoot -3.561065 3.516203 -29.461993
LeftToeBase 12.083304 -0.000000 -0.000000
RightUpLeg -31.660029 -14.614642 5.317956
RightLeg 5.146111 -0.000000 -0.000000
RightFoot -11.167960 -2.091453 -3.954102
RightToeBase -1.038212 -0.000000 0.000000
3747
root -1.961021 37.469047 0.958952 34.661416 16.159175 10.966209
Spine -6.234960 8.154463 -4.671054
Head -3.419135 10.669990 -18.303704
LeftShoulder -2.415774 -12.690561 6.879263
LeftArm -0.615247 -27.409905 -43.228087
LeftForeArm -2.459022 -0.000000 80.111770
LeftHand -19.940849 0.000000 53.771819
LeftHandThumb1 -26.253704 0.000000 33.147579
RightShoulder -1.907766 -19.712778 -6.160473
RightArm 13.829981 -16.052492 54.199636
RightForeArm 191.297861 -0.000000 40.856366
RightHand -2.336620 -0.000000 7.635655
RightHandThumb1 -24.326973 -0.000000 -32.862282
LeftUpLeg -9.204082 4.705946 8.773536
LeftLeg 75.403441 -0.000000 -0.000000
LeftFoot -3.565415 3.516915 -29.586101
LeftToeBase 12.272937 -0.000000 -0.000000
RightUpLeg -31.713478 -14.603346 5.313734
RightLeg 5.142481 -0.000000 -0.000000
RightFoot -11.167550 -2.126030 -3.956624
RightToeBase -0.997917 -0.000000 0.000000
3748
root -1.956096 37.468189 0.947406 34.676794 16.151254 10.970310
Spine -6.283276 8.081167 -4.580167
Head -3.472272 10.097518 -18.194745
LeftShoulder -2.392450 -12.684908 6.901431
LeftArm -0.657605 -27.401653 -43.247549
LeftForeArm -2.471042 0.000000 79.951968
LeftHand -19.949324 -0.000000 53.914739
LeftHandThumb1 -26.253704 0.000000 33.147579
RightShoulder -1.898053 -19.713739 -6.128299
RightArm 13.802847 -15.993887 54.219982
RightForeArm 191.367731 -0.000000 40.866877
RightHand -2.377073 -0.000000 7.701238
RightHandThumb1 -24.326973 -0.000000 -32.862282
LeftUpLeg -9.174644 4.792617 8.732459
LeftLeg 75.311614 -0.000000 -0.000000
LeftFoot -3.478048 3.512577 -29.571235
LeftToeBase 12.055572 -0.000000 -0.000000
RightUpLeg -31.738497 -14.570639 5.284512
RightLeg 5.139382 -0.000000 -0.000000
RightFoot -11.169357 -2.159962 -3.959752
RightToeBase -0.979990 -0.000000 0.000000
3749
root -1.951962 37.468027 0.935486 34.697544 16.167006 10.973765
Spine -6.334284 8.003256 -4.474375
Head -3.515486 9.607285 -18.092839
LeftShoulder -2.356855 -12.687456 6.922808
LeftArm -0.715918 -27.356939 -43.259773
LeftForeArm -2.559912 0.000000 79.818081
LeftHand -19.924488 -0.000000 54.107896
LeftHandThumb1 -26.253704 0.000000 33.147579
RightShoulder -1.895985 -19.716048 -6.096042
RightArm 13.762346 -15.940487 54.237150
RightForeArm 191.367278 0.000000 40.885350
RightHand -2.316694 -0.000000 7.553573
RightHandThumb1 -24.326973 -0.000000 -32.862282
LeftUpLeg -9.158046 4.860973 8.700951
LeftLeg 75.222865 -0.000000 -0.000000
LeftFoot -3.474255 3.500744 -29.589650
LeftToeBase 12.045635 -0.000000 -0.000000
RightUpLeg -31.771583 -14.559385 5.271750
RightLeg 5.141815 -0.000000 -0.000000
RightFoot -11.167458 -2.187997 -3.941064
RightToeBase -0.988860 -0.000000 0.000000
3750
root -1.948347 37.467144 0.924721 34.708030 16.176517 10.973975
Spine -6.373702 7.932938 -4.372296
Head -3.578376 9.095262 -18.016285
LeftShoulder -2.338748 -12.688106 6.962091
LeftArm -0.758040 -27.328186 -43.303890
LeftForeArm -2.608378 -0.000000 79.669538
LeftHand -19.911973 0.000000 54.099254
LeftHandThumb1 -26.253704 0.000000 33.147579
RightShoulder -1.940500 -19.758778 -6.036807
RightArm 13.820315 -15.918826 54.190327
RightForeArm 191.468204 0.000000 40.876478
RightHand -2.380940 -0.000000 7.713589
RightHandThumb1 -24.326973 -0.000000 -32.862282
LeftUpLeg -9.130159 4.919864 8.672186
LeftLeg 75.126829 -0.000000 -0.000000
LeftFoot -3.448250 3.479127 -29.612005
LeftToeBase 12.047093 -0.000000 -0.000000
RightUpLeg -31.797241 -14.563888 5.271803
RightLeg 5.143810 -0.000000 -0.000000
RightFoot -11.176264 -2.197393 -3.946233
RightToeBase -0.950835 -0.000000 0.000000
